<svg xmlns="http://www.w3.org/2000/svg" width="62.246" height="62.246" viewBox="0 0 62.246 62.246">
  <g id="https:_www.flaticon.com_free-icon_design_115806_term_web_20design_page_1_position_48" data-name="https://www.flaticon.com/free-icon/design_115806#term=web%20design&amp;page=1&amp;position=48" opacity="0.6">
    <path id="Path_2" data-name="Path 2" d="M57.28,15.231a.993.993,0,0,0,.993-.993v-4.3h2.98a.993.993,0,0,0,.993-.993V.993A.993.993,0,0,0,61.253,0H53.306a.993.993,0,0,0-.993.993v2.98H9.933V.993A.993.993,0,0,0,8.94,0H.993A.993.993,0,0,0,0,.993V8.94a.993.993,0,0,0,.993.993h2.98v42.38H.993A.993.993,0,0,0,0,53.306v7.946a.993.993,0,0,0,.993.993H8.94a.993.993,0,0,0,.993-.993v-2.98h42.38v2.98a.993.993,0,0,0,.993.993h7.946a.993.993,0,0,0,.993-.993V53.306a.993.993,0,0,0-.993-.993h-2.98v-34.1a.993.993,0,0,0-1.987,0v34.1h-2.98a.993.993,0,0,0-.993.993v2.98H9.933v-2.98a.993.993,0,0,0-.993-.993H5.96V9.933H8.94a.993.993,0,0,0,.993-.993V5.96h42.38V8.94a.993.993,0,0,0,.993.993h2.98v4.3A.993.993,0,0,0,57.28,15.231ZM54.3,54.3h5.96v5.96H54.3ZM7.946,60.26H1.987V54.3h5.96Zm0-52.313H1.987V1.987h5.96ZM54.3,1.987h5.96v5.96H54.3Z" fill="#fff"/>
    <path id="Path_3" data-name="Path 3" d="M135.758,101a.993.993,0,0,0-.993-.993H100.993A.993.993,0,0,0,100,101v16.885a.993.993,0,0,0,.993.993h33.772a.993.993,0,0,0,.993-.993Zm-33.772,1.607,13.671,6.835-13.671,6.835Zm3.214-.614h25.356l-12.678,6.339Zm12.678,8.56,12.678,6.339H105.2Zm2.221-1.11,13.671-6.835v13.671Z" transform="translate(-86.756 -86.76)" fill="#fff"/>
    <path id="Path_4" data-name="Path 4" d="M115.893,355h-14.9a.993.993,0,0,0,0,1.987h14.9a.993.993,0,1,0,0-1.987Z" transform="translate(-86.756 -307.984)" fill="#fff"/>
    <path id="Path_5" data-name="Path 5" d="M258.393,355h-14.9a.993.993,0,1,0,0,1.987h14.9a.993.993,0,0,0,0-1.987Z" transform="translate(-210.384 -307.984)" fill="#fff"/>
    <path id="Path_6" data-name="Path 6" d="M115.893,323.125h-14.9a.993.993,0,0,0,0,1.987h14.9a.993.993,0,1,0,0-1.987Z" transform="translate(-86.756 -280.331)" fill="#fff"/>
    <path id="Path_7" data-name="Path 7" d="M258.393,323.125h-14.9a.993.993,0,1,0,0,1.987h14.9a.993.993,0,0,0,0-1.987Z" transform="translate(-210.384 -280.331)" fill="#fff"/>
    <path id="Path_8" data-name="Path 8" d="M115.893,291.25h-14.9a.993.993,0,0,0,0,1.987h14.9a.993.993,0,1,0,0-1.987Z" transform="translate(-86.756 -252.677)" fill="#fff"/>
    <path id="Path_9" data-name="Path 9" d="M258.393,291.25h-14.9a.993.993,0,1,0,0,1.987h14.9a.993.993,0,0,0,0-1.987Z" transform="translate(-210.384 -252.677)" fill="#fff"/>
    <path id="Path_10" data-name="Path 10" d="M134.765,259.374H100.993a.993.993,0,0,0,0,1.987h33.772a.993.993,0,0,0,0-1.987Z" transform="translate(-86.756 -225.023)" fill="#fff"/>
  </g>
</svg>
