<svg xmlns="http://www.w3.org/2000/svg" width="62.099" height="62.099" viewBox="0 0 62.099 62.099">
  <g id="https:_www.flaticon.com_free-icon_development_1237114_term_web_20design_page_1_position_43" data-name="https://www.flaticon.com/free-icon/development_1237114#term=web%20design&amp;page=1&amp;position=43" opacity="0.6">
    <path id="Path_11" data-name="Path 11" d="M4.14,121.305H20.06l-1.035,2.07h-.4c-3.241,0-5.175,1.547-5.175,4.14a2.07,2.07,0,0,0,2.07,2.07H46.574a2.07,2.07,0,0,0,2.07-2.07c0-2.592-1.934-4.14-5.175-4.14h-.4l-1.035-2.07h15.92a4.14,4.14,0,0,0,4.14-4.14V80.941a4.14,4.14,0,0,0-4.14-4.14H46.574a1.035,1.035,0,1,0,0,2.07H57.959a2.07,2.07,0,0,1,2.07,2.07v36.225a2.07,2.07,0,0,1-2.07,2.07H4.14a2.07,2.07,0,0,1-2.07-2.07V80.941a2.07,2.07,0,0,1,2.07-2.07H15.525a1.035,1.035,0,1,0,0-2.07H4.14A4.14,4.14,0,0,0,0,80.941v36.225A4.14,4.14,0,0,0,4.14,121.305Zm42.434,6.21H15.525c0-.512,0-2.07,3.105-2.07H43.469C46.574,125.445,46.574,127,46.574,127.515Zm-6.85-6.21,1.035,2.07H21.339l1.035-2.07Zm0,0" transform="translate(0 -67.486)" fill="#fff"/>
    <path id="Path_12" data-name="Path 12" d="M84.847,140.948H37.238a1.035,1.035,0,0,1-1.035-1.035V114.039A1.035,1.035,0,0,1,37.238,113h3.1a1.035,1.035,0,1,0,0-2.07h-3.1a3.1,3.1,0,0,0-3.105,3.105v25.874a3.1,3.1,0,0,0,3.105,3.1H84.847a3.1,3.1,0,0,0,3.105-3.1V114.039a3.1,3.1,0,0,0-3.105-3.105h-3.1a1.035,1.035,0,1,0,0,2.07h3.1a1.035,1.035,0,0,1,1.035,1.035v25.874A1.035,1.035,0,0,1,84.847,140.948Zm0,0" transform="translate(-29.993 -97.479)" fill="#fff"/>
    <path id="Path_13" data-name="Path 13" d="M205.836,392.535a1.035,1.035,0,0,0,0,2.07h10.35a1.035,1.035,0,0,0,0-2.07Zm0,0" transform="translate(-179.961 -344.926)" fill="#fff"/>
    <path id="Path_14" data-name="Path 14" d="M141.834,6.016l-1.726-1.727a2.07,2.07,0,0,0-2.615-.253l-2.587,1.708a12.771,12.771,0,0,0-2.518-1.027l-.61-3.051A2.069,2.069,0,0,0,129.75,0h-2.443a2.07,2.07,0,0,0-2.03,1.663l-.626,3.047a12.772,12.772,0,0,0-2.51,1.045l-2.577-1.719a2.069,2.069,0,0,0-2.614.256L115.221,6.02a2.077,2.077,0,0,0-.251,2.61l1.709,2.587a12.884,12.884,0,0,0-1.027,2.518l-3.051.608a2.078,2.078,0,0,0-1.668,2.029v2.445a2.076,2.076,0,0,0,1.664,2.03l3.046.621a12.9,12.9,0,0,0,1.044,2.51l-1.718,2.582a2.076,2.076,0,0,0,.258,2.615l1.726,1.726a2.07,2.07,0,0,0,2.614.257l2.588-1.708a12.8,12.8,0,0,0,2.518,1.027l.609,3.051a2.07,2.07,0,0,0,2.023,1.663h2.443a2.07,2.07,0,0,0,2.03-1.663l.626-3.047a12.744,12.744,0,0,0,2.51-1.045l2.577,1.723a2.07,2.07,0,0,0,2.616-.257l1.727-1.726a2.078,2.078,0,0,0,.256-2.615l-1.71-2.587a13.39,13.39,0,0,0,1.035-2.5l-.992-.295.987.278,3.051-.608a2.077,2.077,0,0,0,1.659-2.029V16.372a2.076,2.076,0,0,0-1.664-2.03l-3.046-.621a12.9,12.9,0,0,0-1.044-2.51l1.723-2.578A2.069,2.069,0,0,0,141.834,6.016Zm-3.188,4.042a2.078,2.078,0,0,0-.089,2.135,11.248,11.248,0,0,1,.872,2.114A2.069,2.069,0,0,0,141,15.763l3.049.61v2.445l-3.049.61a2.069,2.069,0,0,0-1.575,1.455A11.288,11.288,0,0,1,138.557,23a2.07,2.07,0,0,0,.09,2.135l1.723,2.578-1.727,1.727-2.578-1.723a2.079,2.079,0,0,0-2.136-.091,11.261,11.261,0,0,1-2.114.873,2.074,2.074,0,0,0-1.449,1.574l-.616,3.05h-2.443l-.611-3.051a2.077,2.077,0,0,0-1.456-1.574,11.235,11.235,0,0,1-2.113-.87,2.115,2.115,0,0,0-1-.253,2.04,2.04,0,0,0-1.138.343l-2.578,1.723-1.727-1.727,1.724-2.579A2.077,2.077,0,0,0,118.5,23a11.247,11.247,0,0,1-.871-2.114,2.069,2.069,0,0,0-1.575-1.455L113,18.817V16.372l3.049-.61a2.069,2.069,0,0,0,1.575-1.455,11.3,11.3,0,0,1,.872-2.114,2.07,2.07,0,0,0-.09-2.135L116.686,7.48l1.727-1.727,2.578,1.723a2.071,2.071,0,0,0,2.136.091,11.228,11.228,0,0,1,2.114-.872A2.075,2.075,0,0,0,126.7,5.12l.611-3.05h2.443l.611,3.051A2.077,2.077,0,0,0,131.816,6.7a11.235,11.235,0,0,1,2.113.87,2.07,2.07,0,0,0,2.136-.09l2.578-1.723L140.37,7.48Zm0,0" transform="translate(-97.479)" fill="#fff"/>
    <path id="Path_15" data-name="Path 15" d="M196.014,76.8a8.28,8.28,0,1,0,8.28,8.28A8.28,8.28,0,0,0,196.014,76.8Zm0,14.49a6.21,6.21,0,1,1,6.21-6.21A6.21,6.21,0,0,1,196.014,91.29Zm0,0" transform="translate(-164.965 -67.486)" fill="#fff"/>
    <path id="Path_16" data-name="Path 16" d="M249.535,137.57a1.035,1.035,0,1,1-1.035-1.035A1.035,1.035,0,0,1,249.535,137.57Zm0,0" transform="translate(-217.451 -119.975)" fill="#fff"/>
  </g>
</svg>
