<svg xmlns="http://www.w3.org/2000/svg" width="69.262" height="62.336" viewBox="0 0 69.262 62.336">
  <g id="https:_www.flaticon.com_free-icon_online-shop_813896_term_ecommerce_page_1_position_41" data-name="https://www.flaticon.com/free-icon/online-shop_813896#term=ecommerce&amp;page=1&amp;position=41" transform="translate(0 -24)" opacity="0.6">
    <g id="Group_2" data-name="Group 2" transform="translate(0 24)">
      <g id="Group_1" data-name="Group 1" transform="translate(0 0)">
        <path id="Path_17" data-name="Path 17" d="M65.8,24H3.463A3.463,3.463,0,0,0,0,27.463V71.329a3.463,3.463,0,0,0,3.463,3.463h26.55v4.617H20.779a3.463,3.463,0,0,0-3.463,3.463v2.309a1.154,1.154,0,0,0,1.154,1.154H50.792a1.154,1.154,0,0,0,1.154-1.154V82.872a3.463,3.463,0,0,0-3.463-3.463H40.4V74.792H65.8a3.463,3.463,0,0,0,3.463-3.463V27.463A3.463,3.463,0,0,0,65.8,24ZM48.483,81.718a1.154,1.154,0,0,1,1.154,1.154v1.154H19.624V82.872a1.154,1.154,0,0,1,1.154-1.154ZM32.322,79.409V74.792h5.772v4.617Zm34.631-8.081A1.154,1.154,0,0,1,65.8,72.483H3.463a1.154,1.154,0,0,1-1.154-1.154V67.866H66.953Zm0-5.772H2.309V33.331H66.953Zm0-34.535H2.309V27.463a1.154,1.154,0,0,1,1.154-1.154H65.8a1.154,1.154,0,0,1,1.154,1.154Z" transform="translate(0 -24)" fill="#fff"/>
        <path id="Path_18" data-name="Path 18" d="M33.154,106.309h2.562l3.232,15.238a1.154,1.154,0,0,0,1.132.923H53.933a1.154,1.154,0,0,0,1.131-.923L57.373,110a1.155,1.155,0,0,0-1.131-1.385H38.672l-.935-3.742a1.154,1.154,0,0,0-1.12-.875H33.154a1.154,1.154,0,1,0,0,2.309Zm21.679,4.617-1.846,9.235H41.026l-1.847-9.235Z" transform="translate(-27.383 -92.456)" fill="#fff"/>
        <path id="Path_19" data-name="Path 19" d="M83.463,240a3.463,3.463,0,1,0,3.463,3.463A3.463,3.463,0,0,0,83.463,240Zm0,4.617a1.154,1.154,0,1,1,1.154-1.154A1.154,1.154,0,0,1,83.463,244.617Z" transform="translate(-68.456 -208.832)" fill="#fff"/>
        <path id="Path_20" data-name="Path 20" d="M155.463,240a3.463,3.463,0,1,0,3.463,3.463A3.463,3.463,0,0,0,155.463,240Zm0,4.617a1.154,1.154,0,1,1,1.154-1.154A1.154,1.154,0,0,1,155.463,244.617Z" transform="translate(-130.067 -208.832)" fill="#fff"/>
        <path id="Path_21" data-name="Path 21" d="M241.154,130.309h20.779a1.154,1.154,0,1,0,0-2.309H241.154a1.154,1.154,0,1,0,0,2.309Z" transform="translate(-205.369 -112.993)" fill="#fff"/>
        <path id="Path_22" data-name="Path 22" d="M417.154,130.309h2.309a1.154,1.154,0,1,0,0-2.309h-2.309a1.154,1.154,0,1,0,0,2.309Z" transform="translate(-355.973 -112.993)" fill="#fff"/>
        <path id="Path_23" data-name="Path 23" d="M241.154,162.309h20.779a1.154,1.154,0,1,0,0-2.309H241.154a1.154,1.154,0,0,0,0,2.309Z" transform="translate(-205.369 -140.376)" fill="#fff"/>
        <path id="Path_24" data-name="Path 24" d="M417.154,162.309h2.309a1.154,1.154,0,0,0,0-2.309h-2.309a1.154,1.154,0,0,0,0,2.309Z" transform="translate(-355.973 -140.376)" fill="#fff"/>
        <path id="Path_25" data-name="Path 25" d="M241.154,194.309h20.779a1.154,1.154,0,1,0,0-2.309H241.154a1.154,1.154,0,0,0,0,2.309Z" transform="translate(-205.369 -167.758)" fill="#fff"/>
        <path id="Path_26" data-name="Path 26" d="M417.154,194.309h2.309a1.154,1.154,0,0,0,0-2.309h-2.309a1.154,1.154,0,0,0,0,2.309Z" transform="translate(-355.973 -167.758)" fill="#fff"/>
        <path id="Path_27" data-name="Path 27" d="M241.154,226.309h20.779a1.154,1.154,0,1,0,0-2.309H241.154a1.154,1.154,0,0,0,0,2.309Z" transform="translate(-205.369 -195.141)" fill="#fff"/>
        <path id="Path_28" data-name="Path 28" d="M417.154,226.309h2.309a1.154,1.154,0,0,0,0-2.309h-2.309a1.154,1.154,0,0,0,0,2.309Z" transform="translate(-355.973 -195.141)" fill="#fff"/>
      </g>
    </g>
  </g>
</svg>
